<svg xmlns="http://www.w3.org/2000/svg" viewBox="0 0 48 48"><title>15-medal</title><g id="_15-medal" data-name="15-medal"><path d="M39,2V5a1,1,0,0,1-1,1H36V4H12V6H10A1,1,0,0,1,9,5V2a1,1,0,0,1,1-1H38A1,1,0,0,1,39,2Z" style="fill:#e1e7f7"/><polygon points="36 12 36 16 24 26 12 16 12 12 24 22 36 12" style="fill:#fea740"/><polygon points="12 4 12 6 12 8 12 12 24 22 36 12 36 8 36 6 36 4 12 4" style="fill:#a672f1"/><path d="M24,29a9,9,0,1,1-9,9A9,9,0,0,1,24,29Zm6,9a6,6,0,1,0-6,6A6,6,0,0,0,30,38Z" style="fill:#ffdf64"/><circle cx="24" cy="38" r="6" style="fill:#fea740"/><path d="M24,26l-1-.833v3.892a8.5,8.5,0,0,1,2,0V25.167Z" style="fill:#fea740"/><path d="M36,2H11a1,1,0,0,0-1,1V6h2V4H36V6h1V3A1,1,0,0,0,36,2Z" style="fill:#b8bce0"/><path d="M17.682,5.5c0,.276.14.5.312.5h9.375c.173,0,.313-.224.313-.5s-.14-.5-.313-.5H17.994C17.822,5,17.682,5.224,17.682,5.5Z" style="fill:#cba8ff"/><path d="M28.682,5.5a.5.5,0,0,0,.5.5h1a.5.5,0,1,0,0-1h-1A.5.5,0,0,0,28.682,5.5Z" style="fill:#cba8ff"/><ellipse cx="14.682" cy="10.708" rx="0.825" ry="1.148" transform="translate(-3.271 13.524) rotate(-45.02)" style="fill:#f6fafd"/><ellipse cx="28.682" cy="36.708" rx="0.825" ry="1.148" transform="translate(-17.558 31.048) rotate(-45.02)" style="fill:#f6fafd"/><ellipse cx="16.427" cy="12.208" rx="0.413" ry="0.574" transform="translate(-3.82 15.199) rotate(-45.02)" style="fill:#f6fafd"/><path d="M38,0H20V2H38V5H37V4a1,1,0,0,0-1-1H12a1,1,0,0,0-1,1V5H10V2h4V0H10A2,2,0,0,0,8,2V5a2,2,0,0,0,2,2h1v9a1,1,0,0,0,.36.768L23,26.469v1.584a9.934,9.934,0,0,0-8.752,7.725l1.95.444A8.008,8.008,0,1,1,16,38H14a10,10,0,1,0,11-9.949V26.469l11.64-9.7A1,1,0,0,0,37,16V7h1a2,2,0,0,0,2-2V2A2,2,0,0,0,38,0ZM24,24.7,13,15.532v-1.4L15.362,16.1l1.28-1.536L13,11.532V5H35v6.532L24,20.7l-5.36-4.466-1.28,1.536,6,5a1,1,0,0,0,1.28,0L35,14.135v1.4Z"/><rect x="16" width="2" height="2"/><path d="M28.716,36.333l1.886-.666A7.005,7.005,0,1,0,31,38H29a4.993,4.993,0,1,1-.284-1.667Z"/><path d="M22,40v2h4a1,1,0,0,0,1-1V35a1,1,0,0,0-1-1H22v2h3v1H22v2h3v1Z"/></g></svg>