<svg xmlns="http://www.w3.org/2000/svg" viewBox="0 0 48 48"><title>13-medal</title><g id="_13-medal" data-name="13-medal"><path d="M39,2V5a1,1,0,0,1-1,1H36V4H12V6H10A1,1,0,0,1,9,5V2a1,1,0,0,1,1-1H38A1,1,0,0,1,39,2Z" style="fill:#e1e7f7"/><polygon points="36 12 36 16 24 26 12 16 12 12 24 22 36 12" style="fill:#fea740"/><polygon points="36 8 36 12 24 22 12 12 12 8 24 18 36 8" style="fill:#ffce54"/><polygon points="36 6 36 8 24 18 12 8 12 6 12 4 24 14 36 4 36 6" style="fill:#fff978"/><polygon points="36 4 24 14 12 4 36 4" style="fill:#a672f1"/><path d="M24,29a9,9,0,1,1-9,9A9,9,0,0,1,24,29Zm6,9a6,6,0,1,0-6,6A6,6,0,0,0,30,38Z" style="fill:#ffdf64"/><circle cx="24" cy="38" r="6" style="fill:#fea740"/><path d="M24,26l-1-.833v3.892a8.5,8.5,0,0,1,2,0V25.167Z" style="fill:#fea740"/><path d="M36,2H11a1,1,0,0,0-1,1V6h2V4H36V6h1V3A1,1,0,0,0,36,2Z" style="fill:#b8bce0"/><path d="M25,41H23V37.414l-.293.293-1.414-1.414,2-2A1,1,0,0,1,25,35Z" style="fill:#fff"/><path d="M17.682,5.5c0,.276.14.5.312.5h9.375c.173,0,.313-.224.313-.5s-.14-.5-.313-.5H17.994C17.822,5,17.682,5.224,17.682,5.5Z" style="fill:#cba8ff"/><path d="M28.682,5.5a.5.5,0,0,0,.5.5h1a.5.5,0,1,0,0-1h-1A.5.5,0,0,0,28.682,5.5Z" style="fill:#cba8ff"/><ellipse cx="27.682" cy="36.708" rx="0.825" ry="1.148" transform="translate(-17.851 30.341) rotate(-45.02)" style="fill:#f6fafd"/><ellipse cx="17.682" cy="5.708" rx="0.825" ry="1.148" transform="translate(1.146 14.18) rotate(-45.02)" style="fill:#f6fafd"/><ellipse cx="19.427" cy="7.208" rx="0.413" ry="0.574" transform="translate(0.596 15.855) rotate(-45.02)" style="fill:#f6fafd"/><path d="M38,0H20V2H38V5H37V4a1,1,0,0,0-1-1H12a1,1,0,0,0-1,1V5H10V2h4V0H10A2,2,0,0,0,8,2V5a2,2,0,0,0,2,2h1v9a1,1,0,0,0,.36.768L23,26.469v1.582A10.013,10.013,0,0,0,14,38h2a7.989,7.989,0,1,1,.2,1.783l-1.95.444A10,10,0,1,0,25,28.051V26.469l11.64-9.7A1,1,0,0,0,37,16V7h1a2,2,0,0,0,2-2V2A2,2,0,0,0,38,0ZM35,7.532,24,16.7,13,7.532v-1.4l10.36,8.633a1,1,0,0,0,1.28,0l5-4.167L28.36,9.065,24,12.7,14.762,5H33.238L30.56,7.232l1.28,1.536L35,6.135ZM24,24.7,13,15.532v-1.4L15.362,16.1l1.28-1.536L13,11.532v-1.4l10.36,8.633a1,1,0,0,0,1.28,0L35,10.135v1.4L24,20.7l-5.36-4.466-1.28,1.536,6,5a1,1,0,0,0,1.28,0L35,14.135v1.4Z"/><rect x="16" width="2" height="2"/><path d="M28.716,36.333l1.886-.666A7.005,7.005,0,1,0,31,38H29a4.993,4.993,0,1,1-.284-1.667Z"/><path d="M25,41V35a1,1,0,0,0-1.707-.707l-2,2,1.414,1.414L23,37.414V41Z"/></g></svg>