<svg xmlns="http://www.w3.org/2000/svg" viewBox="0 0 48 48"><title>12-reward</title><g id="_12-reward" data-name="12-reward"><path d="M47,23v2a2.006,2.006,0,0,1-2,2H41a2.006,2.006,0,0,1-2-2V23h1.56a2.009,2.009,0,0,1,1.9,1.37L43,26l.54-1.63A2.009,2.009,0,0,1,45.44,23Z" style="fill:#ffce54"/><path d="M47,16v2a2.006,2.006,0,0,1-2,2H41a2.006,2.006,0,0,1-2-2V16h1.56a2.009,2.009,0,0,1,1.9,1.37L43,19l.54-1.63A2.009,2.009,0,0,1,45.44,16Z" style="fill:#ffce54"/><path d="M47,9v2a2.006,2.006,0,0,1-2,2H41a2.006,2.006,0,0,1-2-2V9h1.56a2.009,2.009,0,0,1,1.9,1.37L43,12l.54-1.63A2.009,2.009,0,0,1,45.44,9Z" style="fill:#ffce54"/><path d="M43,1s2,1.34,2,3-2,3-2,3-2-1.34-2-3S43,1,43,1Z" style="fill:#ffce54"/><path d="M43.99,33.41l-1.28,1.43a2.108,2.108,0,0,1-2.85.21L38.3,33.82l-1.56-1.23a1.811,1.811,0,0,1-.28-2.66l1.29-1.44,1.22.96a1.84,1.84,0,0,1,.6,2.15l-.63,1.5,1.48-.83a2.139,2.139,0,0,1,2.36.18Z" style="fill:#ffce54"/><path d="M39,38.91l-1.48,1.48a2.094,2.094,0,0,1-2.95,0l-1.48-1.48-1.48-1.48a2.094,2.094,0,0,1,0-2.95L33.09,33l1.15,1.15a2.085,2.085,0,0,1,.39,2.41l-.8,1.61,1.61-.8a2.085,2.085,0,0,1,2.41.39Z" style="fill:#ffce54"/><path d="M32.67,42.5,34,43.84l-2.14,2.13a3.218,3.218,0,0,1-2.7,1,1.89,1.89,0,0,1-1.4-1.17l-.44-1.06a2.106,2.106,0,0,0-1.06-1.06l-1.06-.44a1.89,1.89,0,0,1-1.17-1.4,2.561,2.561,0,0,1-.03-.39,3.337,3.337,0,0,1,1.03-2.31L27.16,37l1.34,1.33a2.537,2.537,0,0,1,.16,3.08L28,43l1.59-.66A2.537,2.537,0,0,1,32.67,42.5Z" style="fill:#ffce54"/><path d="M24,41.45a2.561,2.561,0,0,1-.03.39,1.89,1.89,0,0,1-1.17,1.4l-1.06.44a2.106,2.106,0,0,0-1.06,1.06l-.44,1.06a1.89,1.89,0,0,1-1.4,1.17,3.218,3.218,0,0,1-2.7-1L14,43.84l1.33-1.34a2.537,2.537,0,0,1,3.08-.16L20,43l-.66-1.59a2.537,2.537,0,0,1,.16-3.08L20.84,37l2.13,2.14A3.337,3.337,0,0,1,24,41.45Z" style="fill:#ffce54"/><path d="M16.39,34.48a2.094,2.094,0,0,1,0,2.95l-1.48,1.48-1.48,1.48a2.094,2.094,0,0,1-2.95,0L9,38.91l1.15-1.15a2.085,2.085,0,0,1,2.41-.39l1.61.8-.8-1.61a2.085,2.085,0,0,1,.39-2.41L14.91,33Z" style="fill:#ffce54"/><path d="M11.54,29.93a1.811,1.811,0,0,1-.28,2.66L9.7,33.82,8.14,35.05a2.108,2.108,0,0,1-2.85-.21L4.01,33.41l1.21-.96a2.139,2.139,0,0,1,2.36-.18l1.48.83-.63-1.5a1.84,1.84,0,0,1,.6-2.15l1.22-.96Z" style="fill:#ffce54"/><path d="M9,23v2a2.006,2.006,0,0,1-2,2H3a2.006,2.006,0,0,1-2-2V23H2.56a2.009,2.009,0,0,1,1.9,1.37L5,26l.54-1.63A2.009,2.009,0,0,1,7.44,23Z" style="fill:#ffce54"/><path d="M9,16v2a2.006,2.006,0,0,1-2,2H3a2.006,2.006,0,0,1-2-2V16H2.56a2.009,2.009,0,0,1,1.9,1.37L5,19l.54-1.63A2.009,2.009,0,0,1,7.44,16Z" style="fill:#ffce54"/><path d="M9,9v2a2.006,2.006,0,0,1-2,2H3a2.006,2.006,0,0,1-2-2V9H2.56a2.009,2.009,0,0,1,1.9,1.37L5,12l.54-1.63A2.009,2.009,0,0,1,7.44,9Z" style="fill:#ffce54"/><path d="M5,1S7,2.34,7,4,5,7,5,7,3,5.66,3,4,5,1,5,1Z" style="fill:#ffce54"/><path d="M43,1V7s2-1.34,2-3S43,1,43,1Z" style="fill:#fff978"/><path d="M45,27a2.006,2.006,0,0,0,2-2V23H45.44a2.009,2.009,0,0,0-1.9,1.37L43,26v1Z" style="fill:#fff978"/><path d="M45,20a2.006,2.006,0,0,0,2-2V16H45.44a2.009,2.009,0,0,0-1.9,1.37L43,19v1Z" style="fill:#fff978"/><path d="M47,11V9H45.44a2.009,2.009,0,0,0-1.9,1.37L43,12v1h2A2.006,2.006,0,0,0,47,11Z" style="fill:#fff978"/><path d="M42.78,32.45a2.139,2.139,0,0,0-2.36-.18l-1.48.83.029-.069-.736.736.067.053,1.56,1.23a2.108,2.108,0,0,0,2.85-.21l1.28-1.43Z" style="fill:#fff978"/><path d="M35.44,37.37l-1.61.8-.74.74,1.48,1.48a2.094,2.094,0,0,0,2.95,0L39,38.91l-1.15-1.15A2.085,2.085,0,0,0,35.44,37.37Z" style="fill:#fff978"/><path d="M29.59,42.34,28,43l-1.112,1.112a2.1,2.1,0,0,1,.432.628l.44,1.06a1.89,1.89,0,0,0,1.4,1.17,3.218,3.218,0,0,0,2.7-1L34,43.84,32.67,42.5A2.537,2.537,0,0,0,29.59,42.34Z" style="fill:#fff978"/><path d="M5,1V7S3,5.66,3,4,5,1,5,1Z" style="fill:#fff978"/><path d="M3,27a2.006,2.006,0,0,1-2-2V23H2.56a2.009,2.009,0,0,1,1.9,1.37L5,26v1Z" style="fill:#fff978"/><path d="M3,20a2.006,2.006,0,0,1-2-2V16H2.56a2.009,2.009,0,0,1,1.9,1.37L5,19v1Z" style="fill:#fff978"/><path d="M1,11V9H2.56a2.009,2.009,0,0,1,1.9,1.37L5,12v1H3A2.006,2.006,0,0,1,1,11Z" style="fill:#fff978"/><path d="M5.22,32.45a2.139,2.139,0,0,1,2.36-.18l1.48.83-.029-.069.736.736L9.7,33.82,8.14,35.05a2.108,2.108,0,0,1-2.85-.21L4.01,33.41Z" style="fill:#fff978"/><path d="M12.56,37.37l1.61.8.74.74-1.48,1.48a2.094,2.094,0,0,1-2.95,0L9,38.91l1.15-1.15A2.085,2.085,0,0,1,12.56,37.37Z" style="fill:#fff978"/><path d="M18.41,42.34,20,43l1.112,1.112a2.1,2.1,0,0,0-.432.628l-.44,1.06a1.89,1.89,0,0,1-1.4,1.17,3.218,3.218,0,0,1-2.7-1L14,43.84l1.33-1.34A2.537,2.537,0,0,1,18.41,42.34Z" style="fill:#fff978"/><polygon points="36 5 36 8 24 15 12 8 12 5 24 12 36 5" style="fill:#ffce54"/><path d="M36,8v2.85a2.015,2.015,0,0,1-.99,1.73L24,19,12.99,12.58A2.015,2.015,0,0,1,12,10.85V8l12,7Z" style="fill:#b079ff"/><polygon points="36 1 36 5 24 12 12 5 12 1 36 1" style="fill:#b079ff"/><polygon points="30 25 27 28 28 33 24 30 20 33 21 28 18 25 22 25 24 21 26 25 30 25" style="fill:#fea740"/><polygon points="22 25 18 25 24 27 22 25" style="fill:#ffce54"/><polygon points="26 25 24 21 24 27 26 25" style="fill:#ffce54"/><polygon points="24 21 22 25 24 27 24 21" style="fill:#ffb844"/><polygon points="30 25 26 25 24 27 30 25" style="fill:#ffb844"/><polygon points="27 28 30 25 24 27 27 28" style="fill:#ff942c"/><polygon points="21 28 20 33 24 27 21 28" style="fill:#fe792c"/><polygon points="24 30 28 33 24 27 24 30" style="fill:#ff942c"/><polygon points="24 27 28 33 27 28 24 27" style="fill:#ffb844"/><polygon points="20 33 24 30 24 27 20 33" style="fill:#fea740"/><polygon points="18 25 21 28 24 27 18 25" style="fill:#ff942c"/><path d="M35.01,10.58,24,17,12.99,10.58A2.015,2.015,0,0,1,12,8.85v2a2.015,2.015,0,0,0,.99,1.73L24,19l11.01-6.42A2.015,2.015,0,0,0,36,10.85v-2A2.015,2.015,0,0,1,35.01,10.58Z" style="fill:#8163ff"/><rect x="12" y="1" width="24" height="2" style="fill:#b785ff"/><path d="M14.682,2.5a.5.5,0,0,0,.5.5h15a.5.5,0,1,0,0-1h-15A.5.5,0,0,0,14.682,2.5Z" style="fill:#cba8ff"/><path d="M31.682,2.5a.5.5,0,0,0,.5.5h1a.5.5,0,0,0,0-1h-1A.5.5,0,0,0,31.682,2.5Z" style="fill:#cba8ff"/><ellipse cx="15.684" cy="3.695" rx="1.642" ry="2.286" transform="translate(1.984 12.177) rotate(-45.02)" style="fill:#f6fafd"/><ellipse cx="18.682" cy="5.708" rx="0.825" ry="1.148" transform="translate(1.439 14.888) rotate(-45.02)" style="fill:#f6fafd"/><ellipse cx="33.427" cy="4.208" rx="0.413" ry="0.574" transform="translate(6.822 24.879) rotate(-45.02)" style="fill:#f6fafd"/><path d="M42.442,7.83a1,1,0,0,0,1.116,0C43.808,7.662,46,6.128,46,4S43.808.338,43.558.17a1,1,0,0,0-1.116,0C42.192.338,40,1.872,40,4S42.192,7.662,42.442,7.83ZM43,2.289A2.752,2.752,0,0,1,44,4a2.754,2.754,0,0,1-1,1.711A2.752,2.752,0,0,1,42,4,2.754,2.754,0,0,1,43,2.289Z"/><path d="M47,8H45.441A3,3,0,0,0,43,9.255,3,3,0,0,0,40.559,8H39a1,1,0,0,0-1,1v2a3,3,0,0,0,3,3h4a3,3,0,0,0,3-3V9A1,1,0,0,0,47,8Zm-6,4a1,1,0,0,1-1-1V10h.559a1,1,0,0,1,.949.684L41.946,12Zm5-1a1,1,0,0,1-1,1h-.946l.438-1.316A1,1,0,0,1,45.441,10H46Z"/><path d="M47,15H45.441A3,3,0,0,0,43,16.255,3,3,0,0,0,40.559,15H39a1,1,0,0,0-1,1v2a3,3,0,0,0,3,3h4a3,3,0,0,0,3-3V16A1,1,0,0,0,47,15Zm-6,4a1,1,0,0,1-1-1V17h.559a1,1,0,0,1,.949.684L41.946,19Zm5-1a1,1,0,0,1-1,1h-.946l.438-1.316A1,1,0,0,1,45.441,17H46Z"/><path d="M47,22H45.441A3,3,0,0,0,43,23.255,3,3,0,0,0,40.559,22H39a1,1,0,0,0-1,1v2a3,3,0,0,0,3,3h4a3,3,0,0,0,3-3V23A1,1,0,0,0,47,22Zm-6,4a1,1,0,0,1-1-1V24h.559a1,1,0,0,1,.949.684L41.946,26Zm5-1a1,1,0,0,1-1,1h-.946l.438-1.316A1,1,0,0,1,45.441,24H46Z"/><path d="M33.375,41.8a3.342,3.342,0,0,0-3.489-.684,3.343,3.343,0,0,0-.684-3.489L27.87,36.293a1.029,1.029,0,0,0-1.414,0L24.32,38.429c-.114.114-.22.234-.32.356-.1-.122-.206-.242-.32-.356l-2.136-2.136a1,1,0,0,0-1.414,0L18.8,37.625a3.343,3.343,0,0,0-.684,3.489,3.338,3.338,0,0,0-3.489.684l-1.332,1.331a1,1,0,0,0,0,1.414L15.43,46.68A4.314,4.314,0,0,0,18.438,48,3.546,3.546,0,0,0,19,47.956a2.87,2.87,0,0,0,2.156-1.766l.447-1.056a1,1,0,0,1,.53-.529h0l1.054-.447a3.1,3.1,0,0,0,.81-.52,3.069,3.069,0,0,0,.81.52l1.054.447h0a1,1,0,0,1,.53.53l.448,1.055A2.867,2.867,0,0,0,29,47.956a3.536,3.536,0,0,0,.564.044,4.313,4.313,0,0,0,3.008-1.32l2.137-2.137a1,1,0,0,0,0-1.414ZM19.764,44.354l-.447,1.054a.914.914,0,0,1-.633.573,2.221,2.221,0,0,1-1.84-.715l-1.43-1.43.625-.624a1.582,1.582,0,0,1,1.874,0,1.019,1.019,0,0,0,.119.06l1.586.655a1.01,1.01,0,0,0,.325.075A2.947,2.947,0,0,0,19.764,44.354Zm3.217-2.669a.912.912,0,0,1-.572.631l-1.055.448a3.037,3.037,0,0,0-.356.179.978.978,0,0,0-.074-.325l-.656-1.586a1.013,1.013,0,0,0-.059-.119,1.584,1.584,0,0,1,0-1.874l.625-.625,1.429,1.43A2.223,2.223,0,0,1,22.981,41.685Zm4.751-.653-.656,1.586a.978.978,0,0,0-.074.325,3.037,3.037,0,0,0-.356-.179l-1.055-.448a.911.911,0,0,1-.572-.633,2.225,2.225,0,0,1,.715-1.84l1.429-1.429.625.625a1.584,1.584,0,0,1,0,1.874A1.013,1.013,0,0,0,27.732,41.032Zm3.424,4.234a2.217,2.217,0,0,1-1.84.715.91.91,0,0,1-.632-.572l-.448-1.054A2.889,2.889,0,0,0,28.057,44a1.01,1.01,0,0,0,.325-.075l1.586-.655a1.019,1.019,0,0,0,.119-.06,1.582,1.582,0,0,1,1.874,0l.625.624Z"/><path d="M43.4,31.665a3.16,3.16,0,0,0-2.7-.577,2.858,2.858,0,0,0-1.116-2.424l-1.217-.958A1,1,0,0,0,37,27.824L35.719,29.26a2.755,2.755,0,0,0-.7,2.1,2.865,2.865,0,0,0,1.108,2.018l1.562,1.229,1.56,1.229a3.131,3.131,0,0,0,1.939.664,3.038,3.038,0,0,0,2.271-.988l1.284-1.436a1,1,0,0,0-.127-1.452Zm-4.751-.451-.5,1.209-.784-.617a.891.891,0,0,1-.353-.621.767.767,0,0,1,.2-.592l.658-.735.48.377A.834.834,0,0,1,38.645,31.214Zm3.32,2.963a1.117,1.117,0,0,1-1.483.087l-.652-.514,1.082-.614a1.148,1.148,0,0,1,1.247.1l.38.3Z"/><path d="M38.556,37.052A3.081,3.081,0,0,0,35.8,36.2a3.086,3.086,0,0,0-.853-2.755L33.8,32.293a1,1,0,0,0-1.414,0L30.905,33.77a3.09,3.09,0,0,0,0,4.37L33.86,41.1a3.089,3.089,0,0,0,4.369,0l1.478-1.478a1,1,0,0,0,0-1.414Zm-4.818-.936-.676,1.352-.743-.743a1.089,1.089,0,0,1,0-1.54l.771-.771.444.444A1.089,1.089,0,0,1,33.738,36.116Zm3.077,3.565a1.116,1.116,0,0,1-1.541,0l-.743-.743,1.353-.676a1.09,1.09,0,0,1,1.258.2l.444.444Z"/><path d="M4.442,7.83a1,1,0,0,0,1.116,0C5.808,7.662,8,6.128,8,4S5.808.338,5.558.17a1,1,0,0,0-1.116,0C4.192.338,2,1.872,2,4S4.192,7.662,4.442,7.83ZM5,2.289A2.752,2.752,0,0,1,6,4,2.754,2.754,0,0,1,5,5.711,2.752,2.752,0,0,1,4,4,2.754,2.754,0,0,1,5,2.289Z"/><path d="M3,14H7a3,3,0,0,0,3-3V9A1,1,0,0,0,9,8H7.441A3,3,0,0,0,5,9.255,3,3,0,0,0,2.559,8H1A1,1,0,0,0,0,9v2A3,3,0,0,0,3,14Zm3.492-3.316A1,1,0,0,1,7.441,10H8v1a1,1,0,0,1-1,1H6.054ZM2,10h.559a1,1,0,0,1,.949.684L3.946,12H3a1,1,0,0,1-1-1Z"/><path d="M3,21H7a3,3,0,0,0,3-3V16a1,1,0,0,0-1-1H7.441A3,3,0,0,0,5,16.255,3,3,0,0,0,2.559,15H1a1,1,0,0,0-1,1v2A3,3,0,0,0,3,21Zm3.492-3.316A1,1,0,0,1,7.441,17H8v1a1,1,0,0,1-1,1H6.054ZM2,17h.559a1,1,0,0,1,.949.684L3.946,19H3a1,1,0,0,1-1-1Z"/><path d="M10,25V23a1,1,0,0,0-1-1H7.441A3,3,0,0,0,5,23.255,3,3,0,0,0,2.559,22H1a1,1,0,0,0-1,1v2a3,3,0,0,0,3,3H7A3,3,0,0,0,10,25ZM3,26a1,1,0,0,1-1-1V24h.559a1,1,0,0,1,.949.684L3.946,26Zm3.492-1.316A1,1,0,0,1,7.441,24H8v1a1,1,0,0,1-1,1H6.054Z"/><path d="M10.315,34.606l1.563-1.229a2.867,2.867,0,0,0,1.107-2.018,2.758,2.758,0,0,0-.7-2.1L11,27.824a1,1,0,0,0-1.363-.118l-1.217.957A2.86,2.86,0,0,0,7.3,31.088a3.163,3.163,0,0,0-2.7.577l-1.216.958a1,1,0,0,0-.127,1.452l1.284,1.436a3.038,3.038,0,0,0,2.271.988,3.126,3.126,0,0,0,1.938-.664Zm-.662-4.371.48-.377.658.735a.767.767,0,0,1,.2.592.893.893,0,0,1-.352.621l-.785.617-.5-1.208A.835.835,0,0,1,9.653,30.235ZM7.517,34.264a1.113,1.113,0,0,1-1.482-.086l-.574-.642.38-.3a1.147,1.147,0,0,1,1.247-.1l1.082.614Z"/><path d="M17.1,38.14a3.089,3.089,0,0,0,0-4.369l-1.478-1.478a1,1,0,0,0-1.414,0l-1.151,1.151A3.086,3.086,0,0,0,12.2,36.2a3.082,3.082,0,0,0-2.755.853L8.293,38.2a1,1,0,0,0,0,1.414L9.771,41.1a3.09,3.09,0,0,0,4.369,0Zm-2.629-3.282.444-.444.771.771a1.09,1.09,0,0,1,0,1.541l-.743.742-.676-1.352A1.089,1.089,0,0,1,14.466,34.858Zm-1.74,4.823a1.117,1.117,0,0,1-1.541,0l-.771-.771.444-.444a1.093,1.093,0,0,1,1.258-.2l1.353.676Z"/><path d="M12.488,13.442,23,19.574v1.19L21.382,24H18a1,1,0,0,0-.707,1.707l2.621,2.622L19.02,32.8a1,1,0,0,0,1.58,1L24,31.25l3.4,2.55a1,1,0,0,0,1.58-1l-.894-4.475,2.621-2.622A1,1,0,0,0,30,24H26.618L25,20.764v-1.19l10.512-6.132A3.009,3.009,0,0,0,37,10.851V1a1,1,0,0,0-1-1H17V2H35V4.426L32.067,6.137l1.008,1.727L35,6.741v.685L24,13.842l-6.352-3.7-1.007,1.728,6.855,4a1,1,0,0,0,1.008,0L35,9.741v1.11a1,1,0,0,1-.5.864L24,17.842,13.5,11.715a1,1,0,0,1-.5-.864V9.741l1.927,1.124,1.008-1.727L13,7.426V6.741l10.5,6.123a1,1,0,0,0,1.008,0l7-4.084L30.5,7.053,24,10.842,13,4.426V2h2V0H12a1,1,0,0,0-1,1v9.851A3.009,3.009,0,0,0,12.488,13.442ZM26,26h1.586l-1.293,1.293a1,1,0,0,0-.273.9l.486,2.433L24.6,29.2a1,1,0,0,0-1.2,0l-1.906,1.429L21.98,28.2a1,1,0,0,0-.273-.9L20.414,26H22a1,1,0,0,0,.895-.553L24,23.236l1.105,2.211A1,1,0,0,0,26,26Z"/></g></svg>