<svg xmlns="http://www.w3.org/2000/svg" viewBox="0 0 48 48"><title>08-trophy</title><g id="_08-trophy" data-name="08-trophy"><polygon points="32 41 34 47 14 47 16 41 18 41 30 41 32 41" style="fill:#976efa"/><polygon points="27.3 8 27.15 7.85 27 8 28 13 24 10 20 13 21 8 18 5 21.6 5 14 1 16.37 22.29 18 37 30 37 31.69 22.31 33 11 27.3 8" style="fill:#f7f7ff"/><rect x="18" y="37" width="12" height="4" style="fill:#fea740"/><polygon points="30 5 27 8 28 13 24 10 20 13 21 8 18 5 22 5 24 1 26 5 30 5" style="fill:#fea740"/><polygon points="22 5 18 5 24 7 22 5" style="fill:#ffce54"/><polygon points="26 5 24 1 24 7 26 5" style="fill:#ffce54"/><polygon points="24 1 22 5 24 7 24 1" style="fill:#ffb844"/><polygon points="30 5 26 5 24 7 30 5" style="fill:#ffb844"/><polygon points="27 8 30 5 24 7 27 8" style="fill:#ff942c"/><polygon points="21 8 20 13 24 7 21 8" style="fill:#fe792c"/><polygon points="24 10 28 13 24 7 24 10" style="fill:#ff942c"/><polygon points="24 7 28 13 27 8 24 7" style="fill:#ffb844"/><polygon points="20 13 24 10 24 7 20 13" style="fill:#fea740"/><polygon points="18 5 21 8 24 7 18 5" style="fill:#ff942c"/><rect x="19" y="18" width="4" height="2" style="fill:#7a6bff"/><rect x="25" y="18" width="4" height="2" style="fill:#7a6bff"/><rect x="19" y="21" width="4" height="2" style="fill:#7a6bff"/><rect x="25" y="21" width="4" height="2" style="fill:#7a6bff"/><path d="M19.6,31.454,16.25,2.184,14,1l2.37,21.29L18,37H30l.23-2H23.569A4,4,0,0,1,19.6,31.454Z" style="fill:#e1e7f7"/><polygon points="31.69 22.31 33 11 31.81 10.374 28.414 35 30.23 35 31.69 22.31" style="fill:#fff"/><path d="M22,40a2,2,0,0,1-2-2V37H18v4H30V40Z" style="fill:#fe792c"/><path d="M19.954,45A2,2,0,0,1,18.1,42.257L18.6,41H16l-2,6H34l-.667-2Z" style="fill:#8163ff"/><rect x="22" y="42" width="6" height="1" rx="0.5" ry="0.5" style="fill:#b785ff"/><rect x="29" y="42" width="2" height="1" rx="0.5" ry="0.5" style="fill:#b785ff"/><path d="M17.076,4.617a1,1,0,0,0,.217,1.09l2.622,2.622L19.02,12.8a1,1,0,0,0,1.58,1L24,11.25l3.4,2.55a1,1,0,0,0,1.58-1l-.895-4.475,2.622-2.622A1,1,0,0,0,30,4H26.618L24.9.553a1.042,1.042,0,0,0-1.79,0L21.382,4H18A1,1,0,0,0,17.076,4.617ZM22,6a1,1,0,0,0,.895-.553L24,3.236l1.105,2.211A1,1,0,0,0,26,6h1.586L26.293,7.293a1,1,0,0,0-.273.9l.486,2.433L24.6,9.2a1,1,0,0,0-1.2,0l-1.906,1.429L21.98,8.2a1,1,0,0,0-.273-.9L20.414,6Z"/><path d="M28.74,9.888l3.188,1.678-.729,6.32,1.987.229.808-7a1,1,0,0,0-.528-1l-3.8-2Z"/><rect x="16.111" y="27.993" width="2" height="2.013" transform="translate(-3.096 2.066) rotate(-6.337)"/><path d="M17.771,25.89,15.2,2.763l2.133,1.122.932-1.769-3.8-2a1,1,0,0,0-1.46,1l2.778,25Z"/><path d="M34.949,46.684l-2-6A1,1,0,0,0,32,40H31V37.06l1.955-16.946-1.987-.23L29.109,36H18.9l-.457-4.111-1.987.221L17,37.053V40H16a1,1,0,0,0-.949.684l-2,6A1,1,0,0,0,14,48H34a1,1,0,0,0,.949-1.316ZM19,38H29v2H19Zm-3.613,8,1.334-4H31.279l1.334,4Z"/><rect x="19" y="18" width="4" height="2"/><rect x="25" y="18" width="4" height="2"/><rect x="19" y="21" width="4" height="2"/><rect x="25" y="21" width="4" height="2"/></g></svg>